<svg width="228" height="133" viewBox="0 0 228 133" fill="none" xmlns="http://www.w3.org/2000/svg">
<path d="M142.545 35.3809L141.493 43.7319C141.019 47.4983 137.805 50.3164 134.009 50.2945L125.082 50.2432C118.086 50.2029 114.95 41.4514 120.33 36.9772L130.308 28.6776C135.539 24.3263 143.395 28.6299 142.545 35.3809Z" stroke="#F5F5F5" stroke-width="5"/>
<path d="M122.738 60.0702L133.586 55.6077C139.444 53.1981 145.466 58.6857 143.61 64.7417L141.183 72.6604C139.479 78.2186 132.373 79.8091 128.463 75.5076L121.089 67.3967C120 66.1988 119.623 64.5155 120.098 62.9676C120.5 61.6554 121.469 60.5923 122.738 60.0702Z" stroke="#F5F5F5" stroke-width="5"/>
<path d="M87.9851 33.4462L104.663 26.1242C110.326 23.638 116.395 28.689 114.978 34.7094L107.678 65.7356C106.332 71.4557 99.2293 73.4763 95.0741 69.3211L85.6967 59.9436C84.2902 58.5371 83.5 56.6295 83.5 54.6403V40.3135C83.5 37.3372 85.2599 34.6426 87.9851 33.4462Z" stroke="#F5F5F5" stroke-width="5"/>
<path d="M44.4318 87.1591H35.9318C35.6894 85.7652 35.2424 84.5303 34.5909 83.4545C33.9394 82.3636 33.1288 81.4394 32.1591 80.6818C31.1894 79.9242 30.0833 79.3561 28.8409 78.9773C27.6136 78.5833 26.2879 78.3864 24.8636 78.3864C22.3333 78.3864 20.0909 79.0227 18.1364 80.2955C16.1818 81.553 14.6515 83.4015 13.5455 85.8409C12.4394 88.2652 11.8864 91.2273 11.8864 94.7273C11.8864 98.2879 12.4394 101.288 13.5455 103.727C14.6667 106.152 16.197 107.985 18.1364 109.227C20.0909 110.455 22.3258 111.068 24.8409 111.068C26.2348 111.068 27.5379 110.886 28.75 110.523C29.9773 110.144 31.0758 109.591 32.0455 108.864C33.0303 108.136 33.8561 107.242 34.5227 106.182C35.2045 105.121 35.6742 103.909 35.9318 102.545L44.4318 102.591C44.1136 104.803 43.4242 106.879 42.3636 108.818C41.3182 110.758 39.947 112.47 38.25 113.955C36.553 115.424 34.5682 116.576 32.2955 117.409C30.0227 118.227 27.5 118.636 24.7273 118.636C20.6364 118.636 16.9848 117.689 13.7727 115.795C10.5606 113.902 8.0303 111.167 6.18182 107.591C4.33333 104.015 3.40909 99.7273 3.40909 94.7273C3.40909 89.7121 4.34091 85.4242 6.20455 81.8636C8.06818 78.2879 10.6061 75.553 13.8182 73.6591C17.0303 71.7651 20.6667 70.8182 24.7273 70.8182C27.3182 70.8182 29.7273 71.1818 31.9545 71.9091C34.1818 72.6364 36.1667 73.7045 37.9091 75.1136C39.6515 76.5076 41.0833 78.2197 42.2045 80.25C43.3409 82.2652 44.0833 84.5682 44.4318 87.1591ZM61.8352 118.705C59.6231 118.705 57.6307 118.311 55.858 117.523C54.1004 116.72 52.7064 115.538 51.6761 113.977C50.661 112.417 50.1534 110.492 50.1534 108.205C50.1534 106.235 50.517 104.606 51.2443 103.318C51.9716 102.03 52.964 101 54.2216 100.227C55.4792 99.4545 56.8958 98.8712 58.4716 98.4773C60.0625 98.0682 61.7064 97.7727 63.4034 97.5909C65.4489 97.3788 67.108 97.1894 68.3807 97.0227C69.6534 96.8409 70.5777 96.5682 71.1534 96.2045C71.7443 95.8258 72.0398 95.2424 72.0398 94.4545V94.3182C72.0398 92.6061 71.5322 91.2803 70.517 90.3409C69.5019 89.4015 68.0398 88.9318 66.1307 88.9318C64.1155 88.9318 62.517 89.3712 61.3352 90.25C60.1686 91.1288 59.3807 92.1667 58.9716 93.3636L51.2898 92.2727C51.8958 90.1515 52.8958 88.3788 54.2898 86.9545C55.6837 85.5151 57.3883 84.4394 59.4034 83.7273C61.4186 83 63.6458 82.6364 66.0852 82.6364C67.767 82.6364 69.4413 82.8333 71.108 83.2273C72.7746 83.6212 74.2973 84.2727 75.6761 85.1818C77.0549 86.0758 78.161 87.2955 78.9943 88.8409C79.8428 90.3864 80.267 92.3182 80.267 94.6364V118H72.358V113.205H72.0852C71.5852 114.174 70.8807 115.083 69.9716 115.932C69.0777 116.765 67.9489 117.439 66.5852 117.955C65.2367 118.455 63.6534 118.705 61.8352 118.705ZM63.9716 112.659C65.6231 112.659 67.0549 112.333 68.267 111.682C69.4792 111.015 70.411 110.136 71.0625 109.045C71.7292 107.955 72.0625 106.765 72.0625 105.477V101.364C71.8049 101.576 71.3655 101.773 70.7443 101.955C70.1383 102.136 69.4564 102.295 68.6989 102.432C67.9413 102.568 67.1913 102.689 66.4489 102.795C65.7064 102.902 65.0625 102.992 64.517 103.068C63.2898 103.235 62.1913 103.508 61.2216 103.886C60.2519 104.265 59.4867 104.795 58.9261 105.477C58.3655 106.144 58.0852 107.008 58.0852 108.068C58.0852 109.583 58.6383 110.727 59.7443 111.5C60.8504 112.273 62.2595 112.659 63.9716 112.659ZM88.5398 118V83.0909H96.517V88.9091H96.8807C97.517 86.8939 98.608 85.3409 100.153 84.25C101.714 83.1439 103.494 82.5909 105.494 82.5909C105.949 82.5909 106.456 82.6136 107.017 82.6591C107.593 82.6894 108.07 82.7424 108.449 82.8182V90.3864C108.1 90.2652 107.547 90.1591 106.79 90.0682C106.047 89.9621 105.328 89.9091 104.631 89.9091C103.131 89.9091 101.782 90.2348 100.585 90.8864C99.4034 91.5227 98.4716 92.4091 97.7898 93.5455C97.108 94.6818 96.767 95.9924 96.767 97.4773V118H88.5398ZM114.278 118V71.4545H122.506V88.8636H122.847C123.271 88.0152 123.869 87.1136 124.642 86.1591C125.415 85.1894 126.46 84.3636 127.778 83.6818C129.097 82.9848 130.778 82.6364 132.824 82.6364C135.521 82.6364 137.953 83.3258 140.119 84.7045C142.301 86.0682 144.028 88.0909 145.301 90.7727C146.589 93.4394 147.233 96.7121 147.233 100.591C147.233 104.424 146.604 107.682 145.347 110.364C144.089 113.045 142.377 115.091 140.21 116.5C138.044 117.909 135.589 118.614 132.847 118.614C130.847 118.614 129.188 118.28 127.869 117.614C126.551 116.947 125.491 116.144 124.688 115.205C123.9 114.25 123.286 113.348 122.847 112.5H122.369V118H114.278ZM122.347 100.545C122.347 102.803 122.665 104.78 123.301 106.477C123.953 108.174 124.884 109.5 126.097 110.455C127.324 111.394 128.809 111.864 130.551 111.864C132.369 111.864 133.892 111.379 135.119 110.409C136.347 109.424 137.271 108.083 137.892 106.386C138.528 104.674 138.847 102.727 138.847 100.545C138.847 98.3788 138.536 96.4545 137.915 94.7727C137.294 93.0909 136.369 91.7727 135.142 90.8182C133.915 89.8636 132.384 89.3864 130.551 89.3864C128.794 89.3864 127.301 89.8485 126.074 90.7727C124.847 91.697 123.915 92.9924 123.278 94.6591C122.657 96.3258 122.347 98.2879 122.347 100.545ZM169.455 118.682C166.045 118.682 163.091 117.932 160.591 116.432C158.091 114.932 156.152 112.833 154.773 110.136C153.409 107.439 152.727 104.288 152.727 100.682C152.727 97.0758 153.409 93.9167 154.773 91.2045C156.152 88.4924 158.091 86.3864 160.591 84.8864C163.091 83.3864 166.045 82.6364 169.455 82.6364C172.864 82.6364 175.818 83.3864 178.318 84.8864C180.818 86.3864 182.75 88.4924 184.114 91.2045C185.492 93.9167 186.182 97.0758 186.182 100.682C186.182 104.288 185.492 107.439 184.114 110.136C182.75 112.833 180.818 114.932 178.318 116.432C175.818 117.932 172.864 118.682 169.455 118.682ZM169.5 112.091C171.348 112.091 172.894 111.583 174.136 110.568C175.379 109.538 176.303 108.159 176.909 106.432C177.53 104.705 177.841 102.78 177.841 100.659C177.841 98.5227 177.53 96.5909 176.909 94.8636C176.303 93.1212 175.379 91.7348 174.136 90.7045C172.894 89.6742 171.348 89.1591 169.5 89.1591C167.606 89.1591 166.03 89.6742 164.773 90.7045C163.53 91.7348 162.598 93.1212 161.977 94.8636C161.371 96.5909 161.068 98.5227 161.068 100.659C161.068 102.78 161.371 104.705 161.977 106.432C162.598 108.159 163.53 109.538 164.773 110.568C166.03 111.583 167.606 112.091 169.5 112.091ZM201.392 97.5455V118H193.165V83.0909H201.028V89.0227H201.438C202.241 87.0682 203.521 85.5152 205.278 84.3636C207.051 83.2121 209.241 82.6364 211.847 82.6364C214.256 82.6364 216.354 83.1515 218.142 84.1818C219.945 85.2121 221.339 86.7045 222.324 88.6591C223.324 90.6136 223.816 92.9848 223.801 95.7727V118H215.574V97.0455C215.574 94.7121 214.968 92.8864 213.756 91.5682C212.559 90.25 210.9 89.5909 208.778 89.5909C207.339 89.5909 206.059 89.9091 204.938 90.5455C203.831 91.1667 202.96 92.0682 202.324 93.25C201.703 94.4318 201.392 95.8636 201.392 97.5455Z" fill="#F5F5F5"/>
</svg>
